<svg width="1074" height="213" viewBox="0 0 1074 213" fill="none" xmlns="http://www.w3.org/2000/svg">
<path d="M924.083 70.2832C928.293 66.5832 932.163 62.3729 936.783 59.2929C942.383 55.5729 948.403 52.2327 954.653 49.8027C960.763 47.4227 965.563 51.4529 964.763 58.0429C964.223 62.4629 962.723 66.9129 960.883 71.0029C958.103 77.1929 954.363 82.9631 951.613 89.1631C949.973 92.8531 949.443 97.0427 948.413 101.013L949.783 102.643C954.123 101.423 958.743 100.793 962.753 98.8828C978.863 91.2228 994.973 83.5232 1010.67 75.0732C1016.39 71.9932 1021.03 66.8727 1026.01 62.5127C1028.49 60.3427 1030.54 59.7023 1033.07 62.4023C1035.62 65.1223 1033.71 66.483 1031.93 68.373C1026.45 74.153 1025.72 81.8126 1027.74 88.4726C1029.5 94.2626 1035.36 98.2726 1042.12 98.4326C1050.37 98.6226 1058.63 98.1331 1066.88 97.9531C1068.46 97.9231 1070.03 97.9531 1073.07 97.9531C1071.32 99.9431 1070.61 101.493 1069.47 101.933C1057.21 106.653 1044.66 107.333 1032.33 102.723C1022.54 99.0626 1016.6 91.9833 1017.42 79.8633C1015.33 80.8533 1013.94 81.4223 1012.63 82.1523C1003.34 87.3623 994.253 92.9526 984.743 97.7226C976.503 101.853 967.903 105.323 959.273 108.573C955.943 109.833 952.093 109.893 948.463 110.163C943.913 110.503 941.013 107.763 940.963 103.623C940.903 98.603 941.253 93.2333 943.003 88.6133C946.273 79.9933 950.733 71.8328 954.583 63.4228C955.273 61.9228 955.373 60.1529 956.023 57.2529C952.933 58.8029 950.863 59.6129 949.043 60.7929C939.553 66.9329 931.443 74.5326 924.763 83.6826C923.143 85.9026 921.233 87.9229 919.373 89.9629C917.383 92.1529 915.143 92.7829 912.473 90.9629C909.823 89.1529 910.173 87.0624 910.733 84.1924C913.273 71.3524 915.403 58.4224 917.623 45.5224C917.743 44.8224 917.353 44.0328 916.903 41.8828C913.893 45.6728 911.163 48.3625 909.323 51.5625C905.613 58.0025 902.323 64.6925 898.993 71.3525C898.143 73.0625 898.003 75.1332 897.123 76.8232C896.363 78.2832 895.043 80.5227 893.913 80.5527C886.533 80.7727 883.243 86.7632 878.583 90.7832C876.993 92.1632 875.583 93.7528 873.963 95.0928C869.953 98.4128 865.593 99.9424 860.493 97.4824C855.083 94.8724 851.603 91.1128 851.943 84.6328C852.473 74.3328 856.463 65.3631 862.983 57.6631C867.943 51.8031 874.273 52.1128 879.653 58.1328C878.603 58.8228 877.723 59.7125 876.663 60.0625C867.673 63.1025 859.433 76.3431 860.643 85.9531C861.123 89.7231 865.103 91.583 868.353 89.083C878.703 81.123 887.563 71.8031 894.353 60.4931C899.243 52.3431 904.763 44.5524 910.123 36.6924C910.903 35.5524 912.363 34.8532 913.593 34.0732C920.113 29.9232 926.653 32.8027 926.533 40.5127C926.403 49.1827 924.813 57.8429 923.823 66.5029C923.703 67.5729 923.383 68.6226 923.153 69.6826C923.463 69.8726 923.773 70.0727 924.083 70.2627V70.2832Z" fill="black"/>
<path d="M637.333 73.993C642.023 66.323 646.713 58.6523 651.423 50.9823C655.743 43.9423 659.933 36.8122 664.463 29.9022C666.693 26.5122 670.253 26.7123 673.003 29.6923C676.893 33.9123 678.083 38.9923 678.063 44.5223C678.003 63.0023 677.943 81.4825 677.873 99.9725C677.853 104.343 677.103 108.942 682.553 111.102C683.203 111.362 683.773 113.183 683.503 113.993C683.253 114.753 681.903 115.443 680.933 115.623C676.423 116.463 671.753 113.442 670.973 107.392C669.763 97.9725 669.723 88.3831 669.513 78.8632C669.213 65.9532 669.213 53.0427 669.083 40.1327C668.553 40.0327 668.033 39.9329 667.503 39.8329C664.523 44.6429 661.503 49.4431 658.563 54.2831C651.833 65.3431 645.143 76.4228 638.393 87.4628C637.733 88.5428 636.863 89.9826 635.823 90.2626C633.103 90.9926 630.013 91.943 627.543 91.203C626.463 90.873 625.943 86.5928 626.203 84.2128C627.823 69.3728 630.353 54.6023 631.333 39.7323C631.903 30.9723 630.653 21.9928 629.283 13.2528C628.493 8.2228 625.593 7.49241 622.303 11.3524C618.143 16.2324 614.213 21.5824 611.473 27.3524C604.183 42.7024 601.053 59.323 597.973 75.913C596.253 85.163 594.173 94.3431 592.133 103.533C591.423 106.733 589.523 108.903 585.893 108.053C582.433 107.253 581.993 104.663 582.553 101.593C584.043 93.4526 586.043 85.3522 586.773 77.1522C587.953 63.9222 588.273 50.6224 588.933 37.3524C588.993 36.0624 588.423 34.5526 588.923 33.5126C589.723 31.8326 591.163 30.4628 592.333 28.9628C593.513 30.2528 595.383 31.3824 595.713 32.8524C596.393 35.9024 596.253 39.1428 597.263 42.5028C599.053 38.2928 600.523 33.9022 602.703 29.9022C607.343 21.3822 611.743 12.6326 617.383 4.80261C622.403 -2.16739 630.753 -1.40779 634.943 6.15221C637.513 10.8022 639.733 16.4924 639.573 21.6424C639.083 37.4924 637.373 53.3027 636.133 69.1327C636.023 70.5427 635.903 71.9629 635.783 73.3729C636.303 73.5729 636.823 73.7823 637.343 73.9823L637.333 73.993Z" fill="black"/>
<path d="M0.0035712 73.0732C-0.0764288 67.8632 1.16356 63.4929 6.16356 60.4229C11.1136 57.3729 15.7136 53.7533 20.2636 50.1133C21.4936 49.1333 22.4136 47.2931 22.6936 45.7031C24.0236 38.4331 25.1736 31.123 26.1436 23.793C26.3636 22.143 25.2736 20.3326 25.3936 18.6426C25.4836 17.4126 26.5736 16.2525 27.2136 15.0625C28.2336 16.1225 29.6036 17.0327 30.1536 18.3027C30.5936 19.3327 30.0136 20.7925 29.9136 22.0625C29.3636 29.4625 28.8236 36.8626 28.2736 44.3926C38.1036 40.7726 47.0236 37.0829 56.1936 34.2129C66.8136 30.8829 77.6536 28.2431 88.4336 25.4131C89.6236 25.1031 91.1036 25.173 92.2336 25.623C93.2736 26.043 94.6336 27.1327 94.7236 28.0527C94.8136 28.9027 93.5936 30.4232 92.6436 30.7432C90.0536 31.6032 87.2736 31.873 84.6336 32.583C79.4836 33.973 74.2536 35.1832 69.2636 37.0332C58.4936 41.0332 47.8336 45.3226 37.1836 49.6426C34.8036 50.6126 32.5136 51.9624 30.4336 53.4824C29.2436 54.3524 27.8836 55.8329 27.7236 57.1729C26.2036 69.8529 24.9236 82.5625 23.4436 96.5625C30.4736 93.8925 37.0636 91.5726 43.5036 88.8926C59.0736 82.4226 74.5236 75.6825 90.1336 69.3125C93.3636 67.9925 97.0436 67.6623 100.554 67.1523C101.364 67.0323 102.344 68.0933 103.254 68.6133C102.574 69.3933 102.044 70.5126 101.184 70.8926C79.4836 80.6626 57.7636 90.4125 35.9836 100.022C32.4536 101.582 28.5136 102.213 24.9636 103.743C23.3836 104.423 21.2936 106.173 21.1536 107.613C19.7236 121.983 18.6036 136.393 17.4936 150.793C17.1936 154.673 18.7436 156.613 23.0136 157.743C42.7936 162.933 61.6136 160.443 79.7436 151.623C87.1636 148.013 94.2936 143.823 101.574 139.923C102.424 139.463 103.354 138.853 104.254 138.833C105.674 138.803 107.104 139.212 108.534 139.442C108.004 140.682 107.804 142.363 106.874 143.093C102.514 146.463 98.2236 150.083 93.4036 152.673C83.7436 157.873 74.4836 164.193 63.4036 166.133C47.3436 168.953 31.2536 171.232 15.4336 164.732C9.10356 162.132 7.85357 160.443 8.76357 153.713C11.7836 131.183 14.9836 108.683 18.0036 86.1631C19.1236 77.8131 19.9336 69.4226 21.0636 59.3926C13.7536 65.0726 7.52356 69.9024 1.29356 74.7324C0.863564 74.1924 0.443566 73.6425 0.0135657 73.1025L0.0035712 73.0732Z" fill="black"/>
<path d="M368.573 118.113C373.113 113.123 377.603 108.093 382.203 103.163C386.283 98.7932 390.303 94.3234 394.763 90.3634C396.233 89.0534 399.933 88.0527 400.913 88.8927C402.653 90.3827 404.123 93.5033 403.873 95.7433C403.293 100.843 401.593 105.823 400.363 110.853C399.953 112.543 399.563 114.233 398.903 116.983C404.603 111.593 409.233 106.693 414.423 102.503C417.883 99.7131 422.043 97.6728 426.113 95.7628C429.483 94.1828 432.613 96.0631 433.403 99.8331C433.893 102.163 433.933 104.593 434.253 107.723C436.343 106.583 437.933 105.613 439.603 104.823C447.503 101.113 455.083 105.733 455.433 114.293C455.563 117.513 456.293 120.713 456.573 123.933C456.963 128.283 457.533 132.653 457.313 136.983C457.223 138.743 455.263 140.403 454.153 142.113C452.003 140.473 448.473 139.183 447.973 137.143C446.803 132.363 447.133 127.233 446.753 122.243C446.583 120.003 446.483 117.693 445.833 115.583C444.703 111.933 441.863 111.223 438.743 113.513C431.923 118.503 426.553 116.543 424.193 108.233C423.983 107.503 423.563 106.832 422.663 104.902C416.433 111.652 410.713 117.863 404.973 124.063C403.883 125.233 402.933 126.693 401.593 127.453C395.503 130.913 390.203 127.883 390.033 120.863C389.963 117.953 390.133 115.003 390.563 112.133C390.993 109.313 391.903 106.563 392.613 103.783L390.273 101.853C389.933 103.063 389.933 104.553 389.193 105.443C383.723 112.023 378.313 118.673 372.473 124.913C367.783 129.923 363.553 128.743 360.123 122.853C356.413 116.473 358.273 110.283 360.693 104.613C363.513 98.0034 367.653 91.9227 371.593 85.8527C372.603 84.2927 374.933 83.0328 376.813 82.7628C378.373 82.5328 380.523 83.6031 381.733 84.7931C382.493 85.5431 382.453 87.7426 381.973 88.9826C380.813 91.9926 379.423 94.9832 377.653 97.6632C376.633 99.2132 374.693 100.173 373.163 101.393C372.093 102.253 370.363 102.923 370.063 103.993C368.823 108.433 368.013 112.993 367.043 117.503L368.573 118.143V118.113Z" fill="black"/>
<path d="M282.483 128.573C285.233 126.293 287.573 124.873 289.223 122.883C299.643 110.293 309.833 97.5132 320.333 84.9932C321.763 83.2932 324.933 81.3926 326.493 81.9326C328.153 82.5026 330.063 86.0427 329.773 87.9727C328.413 97.0427 326.343 106.013 324.503 115.013C324.313 115.963 323.773 116.863 323.703 117.812C323.263 124.283 320.323 131.633 329.723 134.583C326.123 138.813 317.483 137.332 316.263 132.232C315.273 128.102 314.943 123.553 315.533 119.363C316.533 112.223 318.493 105.213 319.053 97.6729C314.713 103.803 310.693 110.182 305.953 115.982C300.743 122.362 295.073 128.393 289.263 134.243C283.843 139.703 275.153 137.142 274.203 129.442C273.493 123.642 274.203 117.423 275.503 111.673C279.313 94.9028 283.233 78.1323 288.103 61.6523C290.983 51.9423 295.753 42.7926 299.683 33.3926C299.873 32.9526 300.083 32.3129 300.443 32.1729C302.423 31.4129 304.453 30.7728 306.463 30.0928C306.703 31.9928 307.653 34.1529 307.063 35.7529C304.943 41.5129 302.163 47.0224 299.903 52.7324C297.773 58.1224 295.563 63.533 294.123 69.123C290.043 84.963 286.203 100.873 282.593 116.833C281.843 120.153 282.483 123.793 282.483 128.573Z" fill="black"/>
<path d="M207.763 150.503C203.063 168.373 191.213 182.523 187.683 200.083C188.253 200.453 188.813 200.823 189.383 201.183C191.923 198.613 194.723 196.262 196.943 193.442C209.643 177.302 216.783 159.343 214.673 138.373C213.773 129.393 208.873 126.323 200.833 130.062C196.933 131.882 193.083 133.823 189.193 135.663C185.363 137.463 174.923 134.743 172.613 131.073C171.863 129.883 171.653 127.893 172.053 126.503C176.083 112.253 185.733 103.393 199.423 98.5928C201.823 97.7528 204.343 97.2829 207.093 97.0029C198.153 106.783 183.603 111.643 180.703 127.743C183.283 127.323 185.343 127.293 187.173 126.623C191.133 125.193 195.273 123.913 198.793 121.713C205.003 117.823 210.263 120.513 215.423 123.413C220.523 126.283 222.173 131.262 222.763 136.902C224.873 157.142 218.893 175.143 207.203 191.253C202.023 198.393 195.593 204.663 189.323 210.913C187.863 212.363 184.403 213.083 182.483 212.393C180.943 211.843 179.583 208.703 179.453 206.633C178.893 197.613 183.343 189.923 187.323 182.383C192.543 172.503 198.673 163.093 204.523 153.553C205.273 152.333 206.663 151.492 207.753 150.482L207.763 150.503Z" fill="black"/>
<path d="M146.743 88.2931C143.673 89.8131 141.773 90.8826 139.783 91.7326C124.653 98.1726 120.463 106.723 120.813 123.723C120.863 126.193 121.823 128.873 123.073 131.053C127.003 137.923 135.683 138.963 141.453 133.423C151.423 123.853 157.193 112.573 155.733 98.3234C155.613 97.1934 156.333 95.9829 156.663 94.8029C157.983 95.1929 159.823 95.1834 160.513 96.0734C161.843 97.7834 163.423 100.053 163.333 102.003C162.643 116.053 158.173 128.683 147.763 138.623C142.093 144.043 134.883 146.273 127.563 144.143C119.823 141.893 115.003 135.893 113.363 127.713C110.293 112.433 116.533 97.2332 129.143 89.4132C134.743 85.9432 138.473 85.5631 146.743 88.2931Z" fill="black"/>
<path d="M818.282 32.7227C814.992 36.5327 812.002 40.663 808.352 44.083C794.172 57.323 790.182 79.1125 798.972 96.3525C803.322 104.873 808.172 105.693 817.272 106.463C818.932 106.603 820.522 107.493 822.152 108.043C820.832 109.193 819.692 110.913 818.162 111.393C807.792 114.623 798.002 110.332 792.522 100.942C782.512 83.7824 783.262 66.6825 793.572 50.3125C798.142 43.0625 802.992 36.0423 816.882 31.6523L818.282 32.7324V32.7227Z" fill="black"/>
<path d="M722.633 107.353C728.223 105.813 733.293 104.293 738.433 103.093C739.563 102.833 740.953 103.703 742.233 104.043C741.753 105.343 741.623 107.003 740.733 107.893C734.293 114.333 722.093 115.363 714.723 109.963C709.923 106.443 708.883 100.704 710.423 95.8636C712.743 88.5736 716.043 81.2933 720.443 75.0833C722.663 71.9433 728.163 71.0334 732.293 69.4134C733.133 69.0834 734.493 70.083 735.613 70.473C735.083 71.563 734.733 72.7927 734.003 73.7327C730.073 78.8227 725.573 83.5432 722.203 88.9632C718.533 94.8632 718.933 101.283 722.633 107.343V107.353Z" fill="black"/>
</svg>
